if (_typeface_js && _typeface_js.loadFace) _typeface_js.loadFace({"glyphs":{"S":{"x_min":68.71875,"x_max":702.0625,"ha":772,"o":"m 685 888 b 407 1008 607 977 518 1008 b 89 729 247 1008 89 919 b 593 245 89 369 593 523 b 382 66 593 130 481 66 b 159 186 279 66 200 113 l 68 120 b 378 -25 143 18 259 -25 b 702 259 534 -25 702 80 b 197 738 702 613 197 473 b 407 916 197 862 304 916 b 597 820 490 916 554 884 l 685 888 "},"¦":{"x_min":112.5,"x_max":195.828125,"ha":308,"o":"m 112 937 l 112 451 l 195 451 l 195 937 l 112 937 m 112 243 l 112 -243 l 195 -243 l 195 243 l 112 243 "},"/":{"x_min":7,"x_max":507,"ha":514,"o":"m 507 980 l 427 1008 l 7 1 l 87 -25 l 507 980 "},"y":{"x_min":22,"x_max":651,"ha":669,"o":"m 137 650 l 22 650 l 288 -8 l 241 -133 b 116 -250 213 -206 180 -250 b 47 -234 91 -250 67 -245 l 37 -323 b 121 -333 65 -331 94 -333 b 326 -169 234 -333 287 -269 l 651 650 l 539 650 l 341 112 l 137 650 "},"Ž":{"x_min":32,"x_max":740.328125,"ha":772,"o":"m 732 983 l 40 983 l 40 891 l 607 891 l 32 83 l 32 0 l 740 0 l 740 91 l 158 91 l 732 900 l 732 983 m 593 1226 l 501 1226 l 386 1076 l 271 1226 l 179 1226 l 330 1026 l 442 1026 l 593 1226 "},"Á":{"x_min":0,"x_max":953,"ha":953,"o":"m 225 258 l 727 258 l 836 0 l 953 0 l 525 983 l 427 983 l 0 0 l 116 0 l 225 258 m 476 867 l 689 350 l 262 350 l 476 867 m 656 1226 l 530 1226 l 391 1026 l 473 1026 l 656 1226 "},"g":{"x_min":67,"x_max":743.390625,"ha":849,"o":"m 82 -202 b 394 -333 165 -291 265 -333 b 743 5 686 -333 743 -136 l 743 650 l 651 650 l 651 541 l 648 541 b 397 666 573 643 475 666 b 67 330 205 666 67 519 b 405 0 67 140 218 0 b 648 122 500 0 590 34 l 651 122 l 651 5 b 398 -250 651 -134 585 -250 b 150 -130 294 -250 204 -202 l 82 -202 m 167 333 b 408 583 167 469 272 583 b 654 333 561 583 654 469 b 408 83 660 183 542 83 b 167 333 272 83 167 197 "},"²":{"x_min":47.046875,"x_max":454.28125,"ha":501,"o":"m 454 476 l 139 476 l 319 638 b 448 847 383 697 448 756 b 255 1000 448 948 358 1000 b 59 859 156 1000 77 950 l 137 847 b 259 925 151 890 198 925 b 365 841 309 925 365 887 b 284 708 365 787 322 744 l 47 480 l 47 401 l 454 401 l 454 476 "},"–":{"x_min":0,"x_max":694.453125,"ha":694,"o":"m 694 379 l 0 379 l 0 287 l 694 287 l 694 379 "},"ë":{"x_min":67.109375,"x_max":706,"ha":772,"o":"m 706 300 l 706 341 b 394 666 706 519 592 665 b 67 325 210 666 67 520 b 403 -16 67 129 210 -16 b 682 120 510 -16 606 23 l 611 179 b 403 66 575 120 500 66 b 164 300 274 66 175 169 l 706 300 m 167 375 b 394 583 167 481 275 583 b 606 375 526 583 606 498 l 167 375 m 181 898 b 252 827 181 862 211 827 b 323 898 294 827 323 862 b 252 969 323 934 294 969 b 181 898 211 969 181 934 m 448 898 b 519 827 448 862 477 827 b 590 898 561 827 590 862 b 519 969 590 934 561 969 b 448 898 477 969 448 934 "},"ƒ":{"x_min":0,"x_max":719,"ha":772,"o":"m 587 581 l 437 581 l 467 755 b 592 916 477 813 500 916 b 671 893 620 916 648 906 l 719 959 b 587 1000 680 986 634 1000 b 375 781 448 1000 396 895 l 338 581 l 173 581 l 173 506 l 323 506 l 235 37 b 116 -109 223 -33 202 -109 b 44 -93 92 -109 65 -104 l 0 -159 b 113 -193 31 -183 73 -193 b 328 18 263 -193 309 -81 l 421 506 l 587 506 l 587 581 "},"Î":{"x_min":-24,"x_max":389.890625,"ha":367,"o":"m 232 982 l 132 982 l 132 0 l 232 0 l 232 982 m 238 1226 l 127 1226 l -24 1026 l 67 1026 l 182 1176 l 298 1026 l 389 1026 l 238 1226 "},"e":{"x_min":67.109375,"x_max":706,"ha":772,"o":"m 706 300 l 706 341 b 394 666 706 519 592 665 b 67 325 210 666 67 520 b 403 -16 67 129 210 -16 b 682 120 510 -16 606 23 l 611 179 b 403 66 575 120 500 66 b 164 300 274 66 175 169 l 706 300 m 167 375 b 394 583 167 481 275 583 b 606 375 526 583 606 498 l 167 375 "},"Ã":{"x_min":0,"x_max":953,"ha":953,"o":"m 225 258 l 728 258 l 836 0 l 953 0 l 525 983 l 428 983 l 0 0 l 116 0 l 225 258 m 476 867 l 689 350 l 262 350 l 476 867 m 311 1043 b 379 1112 319 1077 337 1112 b 472 1080 408 1112 440 1097 b 574 1048 506 1065 540 1048 b 702 1193 657 1048 689 1120 l 642 1193 b 574 1123 633 1158 615 1123 b 480 1155 546 1123 514 1140 b 379 1187 447 1172 412 1187 b 251 1043 296 1187 264 1115 l 311 1043 "},"J":{"x_min":19.4375,"x_max":550,"ha":669,"o":"m 19 180 b 273 -25 41 45 138 -25 b 550 269 484 -25 550 137 l 550 983 l 450 983 l 450 311 b 276 66 450 190 422 66 b 120 201 188 66 138 119 l 19 180 "},"»":{"x_min":85,"x_max":598,"ha":669,"o":"m 338 88 l 403 43 l 598 333 l 403 624 l 338 578 l 497 333 l 338 88 m 85 88 l 150 43 l 344 333 l 150 624 l 85 578 l 244 333 l 85 88 "},"©":{"x_min":34.71875,"x_max":1076.390625,"ha":1111,"o":"m 756 391 b 576 250 741 312 672 250 b 350 494 440 250 350 366 b 573 731 350 626 431 731 b 756 595 669 731 741 673 l 834 595 b 572 806 815 736 704 806 b 266 491 381 806 266 675 b 576 175 266 311 388 175 b 836 391 704 175 805 258 l 756 391 m 34 488 b 555 -25 34 197 272 -25 b 1076 494 838 -25 1076 197 b 555 1008 1076 786 838 1008 b 34 488 272 1008 34 786 m 118 488 b 555 933 118 743 312 933 b 993 494 798 933 993 743 b 555 50 993 241 798 50 b 118 488 312 50 118 241 "},"˘":{"x_min":-37.5,"x_max":370.828125,"ha":333,"o":"m 309 983 b 166 875 297 911 236 875 b 23 983 97 875 36 911 l -37 983 b 166 800 -30 868 52 800 b 370 983 280 800 363 868 l 309 983 "},"ò":{"x_min":66.4375,"x_max":756.71875,"ha":824,"o":"m 756 325 b 410 666 756 520 613 666 b 66 325 209 666 66 520 b 410 -16 66 129 209 -16 b 756 325 613 -16 756 129 m 656 325 b 410 66 656 179 562 66 b 166 325 260 66 166 179 b 410 583 166 470 260 583 b 656 325 562 583 656 470 m 415 783 l 497 783 l 358 983 l 231 983 l 415 783 "},"^":{"x_min":111,"x_max":814,"ha":925,"o":"m 111 381 l 197 381 l 462 883 l 727 381 l 814 381 l 495 983 l 429 983 l 111 381 "},"«":{"x_min":72,"x_max":585,"ha":669,"o":"m 331 578 l 266 624 l 72 333 l 266 43 l 331 88 l 172 333 l 331 578 m 585 578 l 519 624 l 325 333 l 519 43 l 585 88 l 425 333 l 585 578 "},"D":{"x_min":119.4375,"x_max":962.5,"ha":1029,"o":"m 119 0 l 445 0 b 962 491 691 0 962 163 b 445 983 962 819 691 983 l 119 983 l 119 0 m 219 891 l 413 891 b 854 491 713 891 854 694 b 413 91 854 288 713 91 l 219 91 l 219 891 "},"ł":{"x_min":8.328125,"x_max":325,"ha":333,"o":"m 212 1050 l 120 1050 l 120 540 l 8 426 l 8 325 l 120 440 l 120 0 l 212 0 l 212 536 l 325 651 l 325 752 l 212 636 l 212 1050 "},"ÿ":{"x_min":22,"x_max":651,"ha":669,"o":"m 137 650 l 22 650 l 288 -8 l 241 -133 b 116 -250 213 -206 180 -250 b 47 -234 91 -250 67 -245 l 37 -323 b 121 -333 65 -331 94 -333 b 326 -169 234 -333 287 -269 l 651 650 l 539 650 l 341 112 l 137 650 m 130 898 b 201 827 130 862 159 827 b 271 898 242 827 271 862 b 201 969 271 934 242 969 b 130 898 159 969 130 934 m 396 898 b 467 827 396 862 426 827 b 538 898 509 827 538 862 b 467 969 538 934 509 969 b 396 898 426 969 396 934 "},"Ł":{"x_min":19.4375,"x_max":691.671875,"ha":694,"o":"m 233 983 l 133 983 l 133 416 l 19 319 l 19 222 l 133 319 l 133 0 l 691 0 l 691 91 l 233 91 l 233 405 l 533 663 l 533 761 l 233 502 l 233 983 "},"í":{"x_min":82,"x_max":347,"ha":333,"o":"m 212 650 l 120 650 l 120 0 l 212 0 l 212 650 m 347 983 l 220 983 l 82 783 l 163 783 l 347 983 "},"ˆ":{"x_min":-40,"x_max":373.890625,"ha":333,"o":"m 222 983 l 111 983 l -40 783 l 51 783 l 166 933 l 282 783 l 373 783 l 222 983 "},"w":{"x_min":19,"x_max":983,"ha":1003,"o":"m 19 650 l 224 0 l 327 0 l 499 533 l 502 533 l 674 0 l 777 0 l 983 650 l 874 650 l 724 122 l 721 122 l 548 650 l 453 650 l 280 122 l 277 122 l 127 650 l 19 650 "},"$":{"x_min":59.328125,"x_max":701,"ha":772,"o":"m 352 562 b 184 734 260 595 184 640 b 352 912 184 830 253 905 l 352 562 m 419 436 b 601 247 524 402 602 341 b 419 69 599 109 491 69 l 419 436 m 352 68 b 142 187 294 66 203 111 l 59 127 b 352 -25 114 48 223 -18 l 352 -116 l 419 -116 l 419 -22 b 701 247 578 -12 701 93 b 419 543 701 427 555 494 l 419 913 b 598 820 485 915 559 886 l 676 887 b 419 1005 623 948 551 1005 l 419 1100 l 352 1100 l 352 1002 b 84 731 216 993 84 893 b 352 455 84 562 226 494 l 352 68 "},"\\":{"x_min":7,"x_max":507,"ha":514,"o":"m 426 -25 l 507 1 l 86 1008 l 7 980 l 426 -25 "},"Ì":{"x_min":2.71875,"x_max":268,"ha":367,"o":"m 233 983 l 133 983 l 133 0 l 233 0 l 233 983 m 186 1026 l 268 1026 l 129 1226 l 2 1226 l 186 1026 "},"µ":{"x_min":100,"x_max":663.890625,"ha":772,"o":"m 100 -318 l 191 -318 l 191 22 b 344 -18 229 -4 280 -18 b 562 103 430 -18 522 38 l 565 103 l 565 -1 l 663 -1 b 656 141 661 45 656 94 l 656 648 l 565 648 l 565 315 b 368 65 565 155 479 65 b 191 288 234 65 191 128 l 191 648 l 100 648 l 100 -318 "},"Ç":{"x_min":66.671875,"x_max":943.0625,"ha":978,"o":"m 861 213 b 579 66 787 100 681 66 b 175 491 326 66 175 265 b 579 916 175 718 326 916 b 831 787 683 916 793 851 l 919 852 b 579 1008 833 962 701 1008 b 66 491 286 1008 66 790 b 495 -18 66 222 244 19 l 423 -116 l 448 -140 b 512 -125 466 -131 486 -125 b 580 -180 569 -125 580 -163 b 494 -243 580 -226 534 -243 b 391 -218 459 -243 423 -234 l 369 -268 b 504 -301 411 -290 458 -301 b 663 -179 579 -301 663 -265 b 556 -75 663 -112 612 -75 b 506 -84 536 -75 522 -79 l 504 -83 l 550 -22 b 579 -25 559 -25 569 -25 b 943 155 741 -25 877 54 l 861 213 "},"’":{"x_min":78,"x_max":284,"ha":361,"o":"m 284 983 l 171 983 l 78 656 l 171 656 l 284 983 "},"-":{"x_min":52.78125,"x_max":409.71875,"ha":463,"o":"m 409 379 l 52 379 l 52 287 l 409 287 l 409 379 "},"Q":{"x_min":66.671875,"x_max":1126.390625,"ha":1158,"o":"m 175 504 b 563 916 175 722 320 916 b 951 504 805 916 951 722 b 563 91 951 286 805 91 b 175 504 320 91 175 286 m 1126 91 l 829 91 l 829 94 b 1059 504 988 179 1059 327 b 563 1008 1059 795 847 1008 b 66 504 279 1008 66 795 b 563 0 66 212 279 0 l 1126 0 l 1126 91 "},"M":{"x_min":133.328125,"x_max":1102.78125,"ha":1236,"o":"m 286 983 l 133 983 l 133 0 l 233 0 l 233 850 l 236 850 l 591 0 l 644 0 l 1000 850 l 1002 850 l 1002 0 l 1102 0 l 1102 983 l 950 983 l 618 183 l 286 983 "},"C":{"x_min":66.671875,"x_max":943.0625,"ha":978,"o":"m 861 213 b 579 66 787 100 681 66 b 175 491 326 66 175 265 b 579 916 175 718 326 916 b 831 787 683 916 793 851 l 919 852 b 579 1008 833 962 701 1008 b 66 491 286 1008 66 790 b 579 -25 66 193 286 -25 b 943 155 741 -25 877 54 l 861 213 "},"œ":{"x_min":66.703125,"x_max":1213.921875,"ha":1281,"o":"m 1213 300 l 1213 341 b 919 666 1213 525 1111 665 b 670 520 804 666 731 613 b 395 666 609 625 501 666 b 66 325 209 666 66 520 b 395 -16 66 129 197 -16 b 666 130 477 -16 594 25 b 919 -16 718 30 813 -16 b 1191 115 1020 -16 1120 25 l 1119 172 b 916 66 1079 116 1027 66 b 726 287 797 66 726 169 l 726 300 l 1213 300 m 626 325 b 395 66 626 186 545 66 b 166 325 261 66 166 179 b 395 583 166 470 261 583 b 626 325 545 583 626 463 m 726 375 b 922 583 726 494 812 583 b 1122 375 1044 583 1122 495 l 726 375 "},"!":{"x_min":118.0625,"x_max":268.0625,"ha":386,"o":"m 243 983 l 143 983 l 143 266 l 243 266 l 243 983 m 268 66 b 193 141 268 105 237 141 b 118 66 148 141 118 105 b 193 -8 118 27 148 -8 b 268 66 237 -8 268 27 "},"ç":{"x_min":66.671875,"x_max":648.609375,"ha":669,"o":"m 648 553 b 411 666 584 628 498 664 b 66 324 198 669 66 520 b 347 -11 66 149 172 12 l 269 -116 l 294 -140 b 358 -125 312 -131 331 -125 b 426 -180 415 -125 426 -163 b 340 -243 426 -226 380 -243 b 237 -218 305 -243 269 -234 l 215 -268 b 350 -301 256 -290 304 -301 b 509 -179 425 -301 509 -265 b 402 -75 509 -112 458 -75 b 352 -84 381 -75 368 -79 l 350 -83 l 401 -15 b 411 -16 402 -16 406 -16 b 648 95 498 -15 584 20 l 573 152 b 411 66 543 105 483 66 b 166 324 259 63 166 176 b 411 583 166 473 259 585 b 573 496 483 583 543 544 l 648 553 "},"È":{"x_min":132.109375,"x_max":758.5,"ha":824,"o":"m 232 465 l 708 465 l 708 556 l 232 556 l 232 891 l 741 891 l 741 983 l 132 983 l 132 0 l 758 0 l 758 91 l 232 91 l 232 465 m 414 1026 l 496 1026 l 357 1226 l 230 1226 l 414 1026 "},"ﬁ":{"x_min":19.4375,"x_max":645.828125,"ha":746,"o":"m 402 650 l 248 650 l 248 816 b 366 983 248 911 265 983 b 437 973 390 983 415 979 l 454 1056 b 375 1066 427 1062 401 1066 b 156 827 243 1066 156 1000 l 156 650 l 19 650 l 19 566 l 156 566 l 156 0 l 248 0 l 248 566 l 402 566 l 402 650 m 625 650 l 533 650 l 533 0 l 625 0 l 625 650 m 645 900 b 579 966 645 938 612 966 b 512 900 545 966 512 938 b 579 833 512 861 545 833 b 645 900 612 833 645 861 "},"{":{"x_min":16.671875,"x_max":379.171875,"ha":361,"o":"m 16 358 b 140 204 79 358 140 301 l 140 -43 b 290 -216 140 -173 211 -216 l 379 -216 l 379 -133 l 301 -133 b 231 -18 233 -133 231 -70 l 231 220 b 108 398 231 355 140 394 l 108 401 b 231 579 140 405 231 444 l 231 818 b 301 933 231 870 233 933 l 379 933 l 379 1016 l 290 1016 b 140 843 211 1016 140 973 l 140 595 b 16 441 140 498 79 441 l 16 358 "},"X":{"x_min":8,"x_max":866,"ha":875,"o":"m 170 983 l 35 983 l 367 516 l 8 0 l 132 0 l 434 445 l 734 0 l 866 0 l 505 516 l 838 983 l 713 983 l 438 590 l 170 983 "},"ô":{"x_min":67.109375,"x_max":757.390625,"ha":824,"o":"m 757 324 b 411 666 757 520 614 666 b 67 324 210 666 67 520 b 411 -17 67 128 210 -17 b 757 324 614 -17 757 128 m 657 324 b 411 66 657 178 562 66 b 167 324 261 66 167 178 b 411 583 167 470 261 583 b 657 324 562 583 657 470 m 468 983 l 357 983 l 206 783 l 297 783 l 412 933 l 528 783 l 619 783 l 468 983 "},"¼":{"x_min":88.78125,"x_max":1069.640625,"ha":1158,"o":"m 284 -44 l 909 984 l 838 1027 l 212 0 l 284 -44 m 326 991 l 251 991 l 88 867 l 129 814 l 242 908 l 242 401 l 326 401 l 326 991 m 986 589 l 884 589 l 636 216 l 636 130 l 902 130 l 902 0 l 986 0 l 986 130 l 1069 130 l 1069 205 l 986 205 l 986 589 m 902 205 l 711 205 l 900 506 l 902 506 l 902 205 "},"#":{"x_min":49.671875,"x_max":724,"ha":772,"o":"m 149 0 l 234 0 l 275 297 l 460 297 l 418 0 l 503 0 l 544 297 l 687 297 l 687 380 l 555 380 l 586 605 l 724 605 l 724 688 l 599 688 l 639 983 l 554 983 l 514 688 l 329 688 l 369 983 l 285 983 l 245 688 l 83 688 l 83 605 l 233 605 l 202 380 l 49 380 l 49 297 l 191 297 l 149 0 m 317 605 l 501 605 l 471 380 l 286 380 l 317 605 "},"Ê":{"x_min":132.78125,"x_max":759.171875,"ha":824,"o":"m 232 464 l 709 464 l 709 556 l 232 556 l 232 891 l 742 891 l 742 982 l 132 982 l 132 0 l 759 0 l 759 91 l 232 91 l 232 464 m 467 1226 l 356 1226 l 205 1026 l 296 1026 l 411 1176 l 527 1026 l 618 1026 l 467 1226 "},")":{"x_min":11.109375,"x_max":286.109375,"ha":361,"o":"m 84 -222 b 286 400 216 -41 286 186 b 90 1022 286 624 213 849 l 16 966 b 194 400 131 774 194 629 b 11 -174 194 170 129 15 l 84 -222 "},"Å":{"x_min":0,"x_max":953,"ha":953,"o":"m 225 258 l 727 258 l 836 0 l 953 0 l 525 983 l 427 983 l 0 0 l 116 0 l 225 258 m 476 867 l 689 350 l 262 350 l 476 867 m 609 1145 b 476 1277 609 1220 548 1277 b 343 1145 404 1277 343 1220 b 476 1013 343 1070 404 1013 b 609 1145 548 1013 609 1070 m 559 1145 b 476 1063 559 1100 522 1063 b 393 1145 430 1063 393 1100 b 476 1227 393 1191 430 1227 b 559 1145 522 1227 559 1191 "},"ø":{"x_min":55.890625,"x_max":768.390625,"ha":824,"o":"m 610 482 b 657 323 640 437 657 383 b 411 66 657 178 562 66 b 255 118 348 66 296 85 l 610 482 m 214 165 b 167 323 183 207 167 262 b 411 581 167 469 261 581 b 568 527 473 581 528 562 l 214 165 m 768 644 l 723 687 l 632 593 b 411 665 572 638 497 665 b 67 323 210 665 67 519 b 147 97 67 235 96 157 l 55 3 l 100 -39 l 193 54 b 411 -17 248 10 323 -17 b 757 323 614 -17 757 128 b 676 550 757 414 726 493 l 768 644 "},"â":{"x_min":67,"x_max":620.28125,"ha":721,"o":"m 471 398 b 67 173 316 398 67 384 b 290 -17 67 46 175 -17 b 520 105 395 -17 467 19 l 523 105 b 531 0 523 70 525 31 l 620 0 b 609 145 614 34 609 95 l 609 435 b 371 666 609 594 499 666 b 96 571 249 666 155 633 l 152 506 b 350 583 207 556 274 583 b 517 414 463 583 517 527 l 517 398 l 471 398 m 517 323 l 517 276 b 320 66 517 160 453 66 b 167 185 246 66 167 99 b 470 323 167 316 377 323 l 517 323 m 417 983 l 306 983 l 155 783 l 246 783 l 361 933 l 477 783 l 568 783 l 417 983 "},"}":{"x_min":-18.0625,"x_max":344.4375,"ha":361,"o":"m 344 441 b 220 595 281 441 220 498 l 220 843 b 70 1016 220 973 150 1016 l -18 1016 l -18 933 l 59 933 b 129 818 127 933 129 870 l 129 579 b 252 401 129 444 220 405 l 252 398 b 129 220 220 394 129 355 l 129 -18 b 59 -133 129 -70 127 -133 l -18 -133 l -18 -216 l 70 -216 b 220 -43 150 -216 220 -173 l 220 204 b 344 358 220 301 281 358 l 344 441 "},"‰":{"x_min":35,"x_max":1354.125,"ha":1389,"o":"m 459 787 b 247 1001 459 904 365 1001 b 35 787 129 1001 35 904 b 247 573 35 670 129 573 b 459 787 365 573 459 670 m 384 787 b 247 648 384 711 323 648 b 110 787 171 648 110 711 b 247 926 110 863 171 926 b 384 787 323 926 384 863 m 868 198 b 655 412 868 315 773 412 b 443 198 537 412 443 315 b 655 -15 443 81 537 -15 b 868 198 773 -15 868 81 m 793 198 b 655 59 793 122 731 59 b 518 198 579 59 518 122 b 655 337 518 275 579 337 b 793 198 731 337 793 275 m 1354 198 b 1141 412 1354 315 1259 412 b 929 198 1023 412 929 315 b 1141 -15 929 81 1023 -15 b 1354 198 1259 -15 1354 81 m 1279 198 b 1141 59 1279 122 1218 59 b 1004 198 1065 59 1004 122 b 1141 337 1004 275 1065 337 b 1279 198 1218 337 1279 275 m 798 990 l 727 1027 l 101 -4 l 173 -41 l 798 990 "},"Ä":{"x_min":0,"x_max":953,"ha":953,"o":"m 225 258 l 727 258 l 836 0 l 953 0 l 525 983 l 427 983 l 0 0 l 116 0 l 225 258 m 476 867 l 689 350 l 262 350 l 476 867 m 272 1141 b 343 1070 272 1105 301 1070 b 413 1141 384 1070 413 1105 b 343 1212 413 1177 384 1212 b 272 1141 301 1212 272 1177 m 538 1141 b 609 1070 538 1105 568 1070 b 680 1141 651 1070 680 1105 b 609 1212 680 1177 651 1212 b 538 1141 568 1212 538 1177 "},"¸":{"x_min":19.4375,"x_max":313.890625,"ha":333,"o":"m 216 0 l 159 0 l 73 -116 l 98 -140 b 162 -125 116 -131 136 -125 b 230 -180 219 -125 230 -163 b 144 -243 230 -226 184 -243 b 41 -218 109 -243 73 -234 l 19 -268 b 154 -301 61 -290 108 -301 b 313 -179 229 -301 313 -265 b 206 -75 313 -112 262 -75 b 156 -84 186 -75 172 -79 l 154 -83 l 216 0 "},"a":{"x_min":67,"x_max":619.78125,"ha":721,"o":"m 471 398 b 67 173 315 398 67 384 b 290 -16 67 47 175 -16 b 519 105 394 -16 467 19 l 522 105 b 530 0 522 70 525 31 l 619 0 b 608 145 614 34 608 95 l 608 436 b 371 666 608 594 498 666 b 96 572 248 666 155 633 l 151 506 b 350 583 207 556 273 583 b 517 415 462 583 517 527 l 517 398 l 471 398 m 517 323 l 517 276 b 319 66 517 161 453 66 b 167 186 246 66 167 100 b 469 323 167 316 376 323 l 517 323 "},"—":{"x_min":0,"x_max":1388.890625,"ha":1389,"o":"m 1388 379 l 0 379 l 0 287 l 1388 287 l 1388 379 "},"=":{"x_min":108.328125,"x_max":816.671875,"ha":925,"o":"m 108 566 l 108 483 l 816 483 l 816 566 l 108 566 m 108 358 l 108 275 l 816 275 l 816 358 l 108 358 "},"N":{"x_min":133.328125,"x_max":947.21875,"ha":1081,"o":"m 258 983 l 133 983 l 133 0 l 233 0 l 233 841 l 236 841 l 822 0 l 947 0 l 947 983 l 847 983 l 847 150 l 844 150 l 258 983 "},"˚":{"x_min":33.328125,"x_max":300,"ha":333,"o":"m 300 902 b 166 1034 300 977 238 1034 b 33 902 94 1034 33 977 b 166 770 33 827 94 770 b 300 902 238 770 300 827 m 250 902 b 166 820 250 856 212 820 b 83 902 120 820 83 856 b 166 984 83 948 120 984 b 250 902 212 984 250 948 "},"ú":{"x_min":100,"x_max":663.890625,"ha":772,"o":"m 663 0 b 656 143 661 47 656 108 l 656 650 l 565 650 l 565 316 b 368 66 565 79 387 66 b 191 290 231 66 191 145 l 191 650 l 100 650 l 100 237 b 344 -16 100 76 179 -16 b 562 104 430 -16 522 33 l 565 104 b 569 0 565 69 565 34 l 663 0 m 566 983 l 440 983 l 301 783 l 383 783 l 566 983 "},"⁄":{"x_min":-232.21875,"x_max":465,"ha":233,"o":"m -160 -44 l 465 984 l 394 1027 l -232 0 l -160 -44 "},"2":{"x_min":66.921875,"x_max":691.671875,"ha":772,"o":"m 691 91 l 175 91 l 484 398 b 683 744 583 495 683 594 b 386 1000 683 913 544 1000 b 91 765 234 1000 119 911 l 197 754 b 393 908 218 848 294 908 b 583 736 498 908 583 844 b 458 513 583 645 518 575 l 66 115 l 66 0 l 691 0 l 691 91 "},"ü":{"x_min":100,"x_max":663.890625,"ha":772,"o":"m 663 0 b 656 143 661 47 656 108 l 656 650 l 565 650 l 565 316 b 368 66 565 79 387 66 b 191 290 231 66 191 145 l 191 650 l 100 650 l 100 237 b 344 -16 100 76 179 -16 b 562 104 430 -16 522 33 l 565 104 b 569 0 565 69 565 34 l 663 0 m 181 898 b 252 827 181 862 211 827 b 323 898 294 827 323 862 b 252 969 323 934 294 969 b 181 898 211 969 181 934 m 448 898 b 519 827 448 862 477 827 b 590 898 561 827 590 862 b 519 969 590 934 561 969 b 448 898 477 969 448 934 "},"¯":{"x_min":-20.828125,"x_max":354.171875,"ha":333,"o":"m 354 908 l -20 908 l -20 833 l 354 833 l 354 908 "},"Z":{"x_min":32,"x_max":740.328125,"ha":772,"o":"m 732 983 l 40 983 l 40 891 l 607 891 l 32 83 l 32 0 l 740 0 l 740 91 l 158 91 l 732 900 l 732 983 "},"u":{"x_min":100,"x_max":663.890625,"ha":772,"o":"m 663 0 b 656 143 661 47 656 108 l 656 650 l 565 650 l 565 316 b 368 66 565 79 387 66 b 191 290 231 66 191 145 l 191 650 l 100 650 l 100 237 b 344 -16 100 76 179 -16 b 562 104 430 -16 522 33 l 565 104 b 569 0 565 69 565 34 l 663 0 "},"˜":{"x_min":-58,"x_max":392,"ha":333,"o":"m 1 800 b 69 869 10 834 28 869 b 162 837 98 869 130 854 b 264 805 196 822 230 805 b 392 950 347 805 379 877 l 332 950 b 264 880 323 915 305 880 b 171 912 236 880 204 897 b 69 944 137 929 103 944 b -58 800 -13 944 -45 872 l 1 800 "},"Ó":{"x_min":66.671875,"x_max":1091.671875,"ha":1158,"o":"m 1091 491 b 579 1008 1091 790 872 1008 b 66 491 286 1008 66 790 b 579 -25 66 193 286 -25 b 1091 491 872 -25 1091 193 m 983 491 b 579 66 983 265 831 66 b 175 491 326 66 175 265 b 579 916 175 718 326 916 b 983 491 831 916 983 718 m 759 1226 l 633 1226 l 494 1026 l 576 1026 l 759 1226 "},"k":{"x_min":100,"x_max":670.828125,"ha":669,"o":"m 191 1050 l 100 1050 l 100 0 l 191 0 l 191 341 l 529 0 l 670 0 l 312 352 l 636 650 l 498 650 l 191 356 l 191 1050 "},"ˇ":{"x_min":-40,"x_max":374,"ha":333,"o":"m 374 983 l 282 983 l 167 833 l 51 983 l -40 983 l 111 783 l 222 783 l 374 983 "},"Ù":{"x_min":116.5625,"x_max":836,"ha":953,"o":"m 836 983 l 736 983 l 736 377 b 476 66 736 94 551 66 b 216 377 401 66 216 94 l 216 983 l 116 983 l 116 366 b 476 -25 116 202 181 -25 b 836 366 770 -25 836 202 l 836 983 m 479 1026 l 561 1026 l 422 1226 l 295 1226 l 479 1026 "},"Ÿ":{"x_min":-19.4375,"x_max":816.671875,"ha":797,"o":"m 448 423 l 816 983 l 691 983 l 398 519 l 105 983 l -19 983 l 348 423 l 348 0 l 448 0 l 448 423 m 194 1141 b 265 1070 194 1105 223 1070 b 336 1141 306 1070 336 1105 b 265 1212 336 1177 306 1212 b 194 1141 223 1212 194 1177 m 461 1141 b 531 1070 461 1105 490 1070 b 602 1141 573 1070 602 1105 b 531 1212 602 1177 573 1212 b 461 1141 490 1212 461 1177 "},"¢":{"x_min":108.328125,"x_max":690.28125,"ha":772,"o":"m 400 70 b 208 325 280 91 208 194 b 400 579 208 455 280 558 l 400 70 m 466 581 b 615 497 533 577 587 541 l 690 554 b 466 665 630 625 550 661 l 466 750 l 400 750 l 400 662 b 108 325 218 643 108 504 b 400 -12 108 145 218 6 l 400 -100 l 466 -100 l 466 -15 b 690 95 550 -11 630 25 l 615 152 b 466 68 587 108 533 72 l 466 581 "},"ß":{"x_min":116.671875,"x_max":751.390625,"ha":824,"o":"m 208 763 b 404 983 208 861 255 983 b 575 808 498 983 575 919 b 372 637 575 683 484 637 l 372 554 b 651 311 544 554 651 480 b 408 66 651 156 555 66 b 341 73 386 66 363 68 l 341 -5 b 422 -16 368 -13 395 -16 b 751 309 618 -16 751 112 b 513 597 751 452 677 583 l 513 600 b 675 820 622 638 675 711 b 409 1066 675 976 558 1066 b 116 755 186 1066 116 919 l 116 0 l 208 0 l 208 763 "},"é":{"x_min":67.109375,"x_max":706,"ha":772,"o":"m 706 300 l 706 341 b 394 666 706 519 592 665 b 67 325 210 666 67 520 b 403 -16 67 129 210 -16 b 682 120 510 -16 606 23 l 611 179 b 403 66 575 120 500 66 b 164 300 274 66 175 169 l 706 300 m 167 375 b 394 583 167 481 275 583 b 606 375 526 583 606 498 l 167 375 m 566 983 l 440 983 l 301 783 l 383 783 l 566 983 "},"s":{"x_min":46.21875,"x_max":549,"ha":592,"o":"m 526 550 b 310 666 485 634 400 666 b 69 470 187 666 69 605 b 236 300 69 347 192 311 l 325 279 b 449 175 393 262 449 240 b 296 66 449 100 371 66 b 125 163 219 66 162 105 l 46 109 b 296 -16 107 18 197 -16 b 549 183 422 -16 549 41 b 390 361 549 275 480 340 l 297 383 b 169 486 212 402 169 425 b 304 583 169 555 240 583 b 444 495 371 583 417 548 l 526 550 "},"B":{"x_min":133.328125,"x_max":791.671875,"ha":875,"o":"m 133 0 l 433 0 b 791 272 750 0 791 208 b 569 518 791 415 706 506 l 569 520 b 743 736 679 545 743 629 b 426 983 743 922 588 983 l 133 983 l 133 0 m 233 891 l 425 891 b 634 725 613 891 634 765 b 434 552 634 598 530 552 l 233 552 l 233 891 m 233 469 l 437 469 b 683 277 597 469 683 406 b 425 91 683 148 569 91 l 233 91 l 233 469 "},"…":{"x_min":156.9375,"x_max":1231.953125,"ha":1389,"o":"m 306 66 b 231 141 306 105 276 141 b 156 66 187 141 156 105 b 231 -8 156 27 187 -8 b 306 66 276 -8 306 27 m 769 66 b 694 141 769 105 738 141 b 619 66 650 141 619 105 b 694 -8 619 27 650 -8 b 769 66 738 -8 769 27 m 1231 66 b 1156 141 1231 105 1201 141 b 1081 66 1112 141 1081 105 b 1156 -8 1081 27 1112 -8 b 1231 66 1201 -8 1231 27 "},"?":{"x_min":65.28125,"x_max":608.328125,"ha":669,"o":"m 383 337 b 608 756 383 540 608 520 b 344 1000 608 913 493 1000 b 65 769 201 1000 86 915 l 169 756 b 345 908 186 847 252 908 b 508 748 441 908 508 843 b 283 381 508 584 286 534 l 283 266 l 383 266 l 383 337 m 416 66 b 341 141 416 105 386 141 b 266 66 297 141 266 105 b 341 -8 266 27 297 -8 b 416 66 386 -8 416 27 "},"H":{"x_min":133.328125,"x_max":869.453125,"ha":1003,"o":"m 133 0 l 233 0 l 233 465 l 769 465 l 769 0 l 869 0 l 869 983 l 769 983 l 769 556 l 233 556 l 233 983 l 133 983 l 133 0 "},"î":{"x_min":-40,"x_max":373.890625,"ha":333,"o":"m 212 649 l 121 649 l 121 0 l 212 0 l 212 649 m 222 983 l 111 983 l -40 783 l 51 783 l 166 933 l 282 783 l 373 783 l 222 983 "},"c":{"x_min":66.671875,"x_max":648.609375,"ha":669,"o":"m 648 554 b 411 666 584 629 498 665 b 66 325 198 669 66 520 b 411 -16 66 129 198 -19 b 648 95 498 -15 584 20 l 573 152 b 411 66 543 105 483 66 b 166 325 259 63 166 176 b 411 583 166 473 259 586 b 573 497 483 583 543 544 l 648 554 "},"¶":{"x_min":66.671875,"x_max":712.5,"ha":833,"o":"m 712 983 l 383 983 b 66 697 188 983 66 877 b 356 438 66 552 187 438 l 356 -175 l 448 -175 l 448 908 l 620 908 l 620 -175 l 712 -175 l 712 983 "},"−":{"x_min":108.328125,"x_max":816.671875,"ha":925,"o":"m 816 462 l 108 462 l 108 379 l 816 379 l 816 462 "},"•":{"x_min":101.390625,"x_max":593.0625,"ha":694,"o":"m 101 491 b 347 245 101 355 211 245 b 593 491 483 245 593 355 b 347 737 593 627 483 737 b 101 491 211 737 101 627 "},"¥":{"x_min":-2.71875,"x_max":775.328125,"ha":772,"o":"m 109 309 l 109 234 l 336 234 l 336 0 l 436 0 l 436 234 l 662 234 l 662 309 l 436 309 l 436 416 l 446 433 l 662 433 l 662 508 l 492 508 l 775 983 l 657 983 l 386 511 l 115 983 l -2 983 l 282 508 l 109 508 l 109 433 l 326 433 l 336 416 l 336 309 l 109 309 "},"(":{"x_min":75,"x_max":350,"ha":361,"o":"m 276 1022 b 75 400 144 841 75 613 b 270 -222 75 175 147 -49 l 344 -166 b 166 400 229 25 166 170 b 350 974 166 629 231 784 l 276 1022 "},"U":{"x_min":116.671875,"x_max":836.109375,"ha":953,"o":"m 836 983 l 736 983 l 736 377 b 476 66 736 94 551 66 b 216 377 401 66 216 94 l 216 983 l 116 983 l 116 366 b 476 -25 116 202 181 -25 b 836 366 770 -25 836 202 l 836 983 "},"Ñ":{"x_min":133.328125,"x_max":947.21875,"ha":1081,"o":"m 258 983 l 133 983 l 133 0 l 233 0 l 233 841 l 236 841 l 822 0 l 947 0 l 947 983 l 847 983 l 847 150 l 844 150 l 258 983 m 375 1043 b 443 1112 383 1077 401 1112 b 536 1080 472 1112 504 1097 b 637 1048 569 1065 604 1048 b 765 1193 720 1048 752 1120 l 705 1193 b 637 1123 697 1158 679 1123 b 544 1155 609 1123 577 1140 b 443 1187 511 1172 476 1187 b 315 1043 359 1187 327 1115 l 375 1043 "},"F":{"x_min":133.328125,"x_max":726.390625,"ha":772,"o":"m 233 465 l 691 465 l 691 556 l 233 556 l 233 891 l 726 891 l 726 983 l 133 983 l 133 0 l 233 0 l 233 465 "},":":{"x_min":118.0625,"x_max":268.0625,"ha":386,"o":"m 268 581 b 193 656 268 620 237 656 b 118 581 148 656 118 620 b 193 506 118 543 148 506 b 268 581 237 506 268 543 m 268 66 b 193 141 268 105 237 141 b 118 66 148 141 118 105 b 193 -8 118 27 148 -8 b 268 66 237 -8 268 27 "},"Û":{"x_min":116.21875,"x_max":835.671875,"ha":953,"o":"m 835 982 l 735 982 l 735 377 b 475 66 735 94 550 66 b 216 377 400 66 216 94 l 216 982 l 116 982 l 116 366 b 475 -25 116 202 181 -25 b 835 366 770 -25 835 202 l 835 982 m 531 1226 l 420 1226 l 269 1026 l 360 1026 l 475 1176 l 591 1026 l 682 1026 l 531 1226 "},"*":{"x_min":43,"x_max":574,"ha":617,"o":"m 350 983 l 266 983 l 266 784 l 72 847 l 43 769 l 239 706 l 113 538 l 180 489 l 308 661 l 436 489 l 503 538 l 378 706 l 574 769 l 544 847 l 350 784 l 350 983 "},"†":{"x_min":56.9375,"x_max":715.28125,"ha":772,"o":"m 431 983 l 340 983 l 340 700 l 56 700 l 56 616 l 340 616 l 340 -175 l 431 -175 l 431 616 l 715 616 l 715 700 l 431 700 l 431 983 "},"°":{"x_min":70.828125,"x_max":484.71875,"ha":556,"o":"m 484 793 b 277 1000 484 912 397 1000 b 70 793 158 1000 70 912 b 277 586 70 673 158 586 b 484 793 397 586 484 673 m 418 793 b 277 652 418 715 355 652 b 137 793 200 652 137 715 b 277 933 137 870 200 933 b 418 793 355 933 418 870 "},"V":{"x_min":-4,"x_max":853,"ha":849,"o":"m 107 983 l -4 983 l 369 0 l 469 0 l 853 983 l 744 983 l 422 150 l 419 150 l 107 983 "},"å":{"x_min":67,"x_max":619.78125,"ha":721,"o":"m 471 398 b 67 173 315 398 67 384 b 290 -16 67 47 175 -16 b 519 105 394 -16 467 19 l 522 105 b 530 0 522 70 525 31 l 619 0 b 608 145 614 34 608 95 l 608 436 b 371 666 608 594 498 666 b 96 572 248 666 155 633 l 151 506 b 350 583 207 556 273 583 b 517 415 462 583 517 527 l 517 398 l 471 398 m 517 323 l 517 276 b 319 66 517 161 453 66 b 167 186 246 66 167 100 b 469 323 167 316 376 323 l 517 323 m 494 902 b 361 1034 494 977 433 1034 b 227 902 288 1034 227 977 b 361 770 227 827 288 770 b 494 902 433 770 494 827 m 444 902 b 361 820 444 856 406 820 b 277 902 315 820 277 856 b 361 984 277 948 315 984 b 444 902 406 984 444 948 "},"0":{"x_min":52.78125,"x_max":719.453125,"ha":772,"o":"m 386 1000 b 52 491 104 1000 52 709 b 386 -16 52 273 104 -16 b 719 491 668 -16 719 273 b 386 1000 719 709 668 1000 m 386 908 b 619 491 600 908 619 647 b 386 75 619 336 600 75 b 152 491 172 75 152 336 b 386 908 152 647 172 908 "},"”":{"x_min":132,"x_max":590,"ha":721,"o":"m 590 983 l 477 983 l 384 656 l 477 656 l 590 983 m 338 983 l 225 983 l 132 656 l 225 656 l 338 983 "},"¾":{"x_min":61.21875,"x_max":1097.515625,"ha":1158,"o":"m 340 -44 l 965 984 l 894 1027 l 268 0 l 340 -44 m 193 670 l 233 670 b 383 563 357 670 383 606 b 268 467 383 516 322 467 b 132 554 190 467 154 498 l 61 512 b 262 392 95 429 168 392 b 466 562 373 392 466 454 b 334 706 466 634 419 692 l 334 709 b 448 847 398 729 448 781 b 264 999 448 944 364 999 b 80 906 186 999 127 976 l 145 860 b 265 924 182 910 212 924 b 365 844 322 924 365 888 b 226 745 365 776 301 745 l 193 745 l 193 670 m 1014 590 l 912 590 l 664 216 l 664 130 l 930 130 l 930 0 l 1014 0 l 1014 130 l 1097 130 l 1097 205 l 1014 205 l 1014 590 m 930 205 l 739 205 l 928 506 l 930 506 l 930 205 "},"@":{"x_min":59.46875,"x_max":1051.125,"ha":1111,"o":"m 698 568 b 483 273 698 454 603 273 b 352 406 408 273 352 329 b 585 706 352 536 451 701 b 698 568 644 706 698 647 m 746 676 l 744 676 b 585 790 715 761 653 790 b 260 398 390 790 260 590 b 458 190 260 275 340 190 b 631 272 540 190 588 227 l 634 272 b 731 190 641 215 676 190 b 1051 581 856 190 1051 341 b 578 1008 1051 831 835 1008 b 59 491 295 1008 59 781 b 578 -25 59 201 295 -25 b 1017 218 759 -25 928 65 l 930 218 b 578 50 855 112 716 50 b 142 491 340 50 142 261 b 578 933 142 722 340 933 b 967 576 773 933 967 786 b 758 273 967 422 853 273 b 726 301 738 273 726 287 b 738 372 726 322 731 348 l 855 763 l 777 763 l 746 676 "},"ö":{"x_min":66.671875,"x_max":756.953125,"ha":824,"o":"m 756 325 b 411 666 756 520 613 666 b 66 325 209 666 66 520 b 411 -16 66 129 209 -16 b 756 325 613 -16 756 129 m 656 325 b 411 66 656 179 562 66 b 166 325 261 66 166 179 b 411 583 166 470 261 583 b 656 325 562 583 656 470 m 208 898 b 279 827 208 862 237 827 b 350 898 320 827 350 862 b 279 969 350 934 320 969 b 208 898 237 969 208 934 m 475 898 b 545 827 475 862 504 827 b 616 898 587 827 616 862 b 545 969 616 934 587 969 b 475 898 504 969 475 934 "},"i":{"x_min":100,"x_max":233.328125,"ha":333,"o":"m 212 650 l 120 650 l 120 0 l 212 0 l 212 650 m 233 900 b 166 966 233 938 200 966 b 100 900 133 966 100 938 b 166 833 100 861 133 833 b 233 900 200 833 233 861 "},"Õ":{"x_min":66.671875,"x_max":1091.671875,"ha":1158,"o":"m 1091 491 b 579 1008 1091 790 872 1008 b 66 491 286 1008 66 790 b 579 -25 66 193 286 -25 b 1091 491 872 -25 1091 193 m 983 491 b 579 66 983 265 831 66 b 175 491 326 66 175 265 b 579 916 175 718 326 916 b 983 491 831 916 983 718 m 413 1043 b 481 1112 422 1077 440 1112 b 575 1080 511 1112 543 1097 b 676 1048 608 1065 643 1048 b 804 1193 759 1048 791 1120 l 744 1193 b 676 1123 736 1158 718 1123 b 583 1155 648 1123 616 1140 b 481 1187 550 1172 515 1187 b 354 1043 398 1187 366 1115 l 413 1043 "},"þ":{"x_min":100,"x_max":793.0625,"ha":849,"o":"m 100 -316 l 191 -316 l 191 108 l 194 108 b 447 -16 254 20 361 -16 b 793 325 650 -16 793 129 b 447 666 793 520 650 666 b 194 529 373 666 276 641 l 191 529 l 191 1050 l 100 1050 l 100 -316 m 693 325 b 447 66 693 179 598 66 b 187 325 288 66 187 179 b 447 583 187 470 297 583 b 693 325 598 583 693 470 "},"]":{"x_min":45.828125,"x_max":270.828125,"ha":361,"o":"m 45 -216 l 270 -216 l 270 1016 l 45 1016 l 45 941 l 179 941 l 179 -141 l 45 -141 l 45 -216 "},"m":{"x_min":93.0625,"x_max":1069.453125,"ha":1183,"o":"m 100 0 l 191 0 l 191 333 b 375 583 191 570 352 583 b 538 379 501 583 538 511 l 538 0 l 630 0 l 630 345 b 813 583 630 466 677 583 b 977 379 940 583 977 511 l 977 0 l 1069 0 l 1069 412 b 825 666 1069 573 990 666 b 611 531 737 666 648 615 b 404 666 568 643 475 666 b 194 551 326 666 238 626 l 191 551 l 191 650 l 93 650 b 100 505 95 601 100 554 l 100 0 "},"8":{"x_min":75,"x_max":697.21875,"ha":772,"o":"m 258 520 b 75 262 148 491 75 391 b 386 -16 75 91 220 -16 b 697 262 551 -16 697 91 b 513 520 697 391 623 491 l 513 523 b 661 743 600 552 661 643 b 386 1000 661 900 533 1000 b 111 743 238 1000 111 900 b 258 523 111 643 172 552 l 258 520 m 561 734 b 386 561 561 633 484 561 b 211 734 287 561 211 633 b 386 908 211 836 287 908 b 561 734 484 908 561 836 m 597 276 b 386 75 597 161 513 75 b 175 276 258 75 175 161 b 386 477 175 391 258 477 b 597 276 513 477 597 391 "},"ž":{"x_min":32.4375,"x_max":560.21875,"ha":592,"o":"m 546 650 l 51 650 l 51 566 l 413 566 l 32 66 l 32 0 l 560 0 l 560 83 l 165 83 l 546 583 l 546 650 m 503 983 l 411 983 l 296 833 l 180 983 l 89 983 l 240 783 l 351 783 l 503 983 "},"R":{"x_min":133.328125,"x_max":791.671875,"ha":824,"o":"m 233 456 l 400 456 l 669 0 l 791 0 l 508 466 b 759 720 669 480 759 584 b 436 983 759 897 636 983 l 133 983 l 133 0 l 233 0 l 233 456 m 233 891 l 411 891 b 651 720 590 891 651 815 b 411 548 651 626 590 548 l 233 548 l 233 891 "},"á":{"x_min":67,"x_max":619.78125,"ha":721,"o":"m 471 398 b 67 173 315 398 67 384 b 290 -16 67 47 175 -16 b 519 105 394 -16 467 19 l 522 105 b 530 0 522 70 525 31 l 619 0 b 608 145 614 34 608 95 l 608 436 b 371 666 608 594 498 666 b 96 572 248 666 155 633 l 151 506 b 350 583 207 556 273 583 b 517 415 462 583 517 527 l 517 398 l 471 398 m 517 323 l 517 276 b 319 66 517 161 453 66 b 167 186 246 66 167 100 b 469 323 167 316 376 323 l 517 323 m 541 983 l 415 983 l 276 783 l 358 783 l 541 983 "},"×":{"x_min":183,"x_max":741,"ha":925,"o":"m 241 701 l 183 642 l 403 420 l 183 199 l 241 140 l 462 360 l 681 140 l 741 199 l 520 420 l 741 642 l 681 701 l 462 480 l 241 701 "},"o":{"x_min":66.671875,"x_max":756.953125,"ha":824,"o":"m 756 325 b 411 666 756 520 613 666 b 66 325 209 666 66 520 b 411 -16 66 129 209 -16 b 756 325 613 -16 756 129 m 656 325 b 411 66 656 179 562 66 b 166 325 261 66 166 179 b 411 583 166 470 261 583 b 656 325 562 583 656 470 "},"5":{"x_min":66.671875,"x_max":680.5625,"ha":772,"o":"m 645 983 l 144 983 l 134 474 b 338 528 197 507 268 528 b 580 294 479 528 580 433 b 358 75 580 172 483 75 b 165 201 272 75 202 125 l 66 158 b 350 -16 119 44 226 -16 b 680 304 538 -16 680 114 b 369 619 680 485 554 619 b 237 596 325 619 279 612 l 243 892 l 645 892 l 645 983 "},"õ":{"x_min":66.671875,"x_max":756.953125,"ha":824,"o":"m 756 325 b 411 666 756 520 613 666 b 66 325 209 666 66 520 b 411 -16 66 129 209 -16 b 756 325 613 -16 756 129 m 656 325 b 411 66 656 179 562 66 b 166 325 261 66 166 179 b 411 583 166 470 261 583 b 656 325 562 583 656 470 m 247 800 b 315 869 255 834 273 869 b 408 837 344 869 376 854 b 509 805 441 822 476 805 b 637 950 593 805 625 877 l 577 950 b 509 880 569 915 551 880 b 416 912 481 880 450 897 b 315 944 383 929 348 944 b 187 800 231 944 200 872 l 247 800 "},"7":{"x_min":74.953125,"x_max":658.0625,"ha":772,"o":"m 658 983 l 74 983 l 74 891 l 553 891 l 149 0 l 262 0 l 658 891 l 658 983 "},"K":{"x_min":133.328125,"x_max":880.5625,"ha":875,"o":"m 233 983 l 133 983 l 133 0 l 233 0 l 233 506 l 250 506 l 733 0 l 880 0 l 356 537 l 852 983 l 709 983 l 247 556 l 233 556 l 233 983 "},",":{"x_min":90,"x_max":296,"ha":386,"o":"m 296 131 l 183 131 l 90 -194 l 183 -194 l 296 131 "},"d":{"x_min":55.5625,"x_max":748.609375,"ha":849,"o":"m 748 1050 l 656 1050 l 656 541 l 654 541 b 401 666 594 629 487 666 b 55 325 198 666 55 520 b 401 -16 55 129 198 -16 b 654 108 487 -16 594 20 l 656 108 l 656 0 l 748 0 l 748 1050 m 155 325 b 401 583 155 470 250 583 b 661 325 551 583 661 470 b 401 66 661 179 551 66 b 155 325 250 66 155 179 "},"¨":{"x_min":-37.5,"x_max":370.828125,"ha":333,"o":"m -37 898 b 33 827 -37 862 -8 827 b 104 898 75 827 104 862 b 33 969 104 934 75 969 b -37 898 -8 969 -37 934 m 229 898 b 300 827 229 862 258 827 b 370 898 341 827 370 862 b 300 969 370 934 341 969 b 229 898 258 969 229 934 "},"Ô":{"x_min":66.4375,"x_max":1091.453125,"ha":1158,"o":"m 1091 491 b 578 1007 1091 789 872 1007 b 66 491 285 1007 66 789 b 578 -25 66 192 285 -25 b 1091 491 872 -25 1091 192 m 983 491 b 578 66 983 264 831 66 b 174 491 326 66 174 264 b 578 916 174 717 326 916 b 983 491 831 916 983 717 m 634 1226 l 523 1226 l 372 1026 l 463 1026 l 578 1176 l 694 1026 l 785 1026 l 634 1226 "},"E":{"x_min":133.328125,"x_max":759.71875,"ha":824,"o":"m 233 465 l 709 465 l 709 556 l 233 556 l 233 891 l 743 891 l 743 983 l 133 983 l 133 0 l 759 0 l 759 91 l 233 91 l 233 465 "},"Y":{"x_min":-19.4375,"x_max":816.671875,"ha":797,"o":"m 448 423 l 816 983 l 691 983 l 398 519 l 105 983 l -19 983 l 348 423 l 348 0 l 448 0 l 448 423 "},"\"":{"x_min":218.0625,"x_max":502.78125,"ha":721,"o":"m 218 656 l 301 656 l 301 983 l 218 983 l 218 656 m 419 656 l 502 656 l 502 983 l 419 983 l 419 656 "},"‹":{"x_min":82,"x_max":342,"ha":438,"o":"m 182 333 l 342 578 l 276 624 l 82 333 l 276 43 l 342 88 l 182 333 "},"˙":{"x_min":95.828125,"x_max":237.5,"ha":333,"o":"m 95 912 b 166 841 95 876 125 841 b 237 912 208 841 237 876 b 166 983 237 948 208 983 b 95 912 125 983 95 948 "},"ê":{"x_min":66.5,"x_max":706,"ha":772,"o":"m 706 299 l 706 341 b 394 666 706 519 592 664 b 66 324 209 666 66 520 b 402 -17 66 128 209 -17 b 682 120 510 -17 605 23 l 611 178 b 402 66 575 120 500 66 b 163 299 273 66 174 169 l 706 299 m 166 374 b 394 583 166 481 274 583 b 605 374 526 583 605 498 l 166 374 m 441 983 l 330 983 l 179 783 l 270 783 l 386 933 l 501 783 l 593 783 l 441 983 "},"Ï":{"x_min":-20.828125,"x_max":387.5,"ha":367,"o":"m 233 983 l 133 983 l 133 0 l 233 0 l 233 983 m -20 1141 b 50 1070 -20 1105 8 1070 b 120 1141 91 1070 120 1105 b 50 1212 120 1177 91 1212 b -20 1141 8 1212 -20 1177 m 245 1141 b 316 1070 245 1105 275 1070 b 387 1141 358 1070 387 1105 b 316 1212 387 1177 358 1212 b 245 1141 275 1212 245 1177 "},"„":{"x_min":132,"x_max":590,"ha":721,"o":"m 590 131 l 477 131 l 384 -194 l 477 -194 l 590 131 m 338 131 l 225 131 l 132 -194 l 225 -194 l 338 131 "},"Â":{"x_min":0,"x_max":953,"ha":953,"o":"m 225 258 l 727 258 l 836 0 l 953 0 l 525 983 l 428 983 l 0 0 l 116 0 l 225 258 m 476 867 l 689 350 l 263 350 l 476 867 m 532 1226 l 421 1226 l 270 1026 l 361 1026 l 476 1176 l 591 1026 l 683 1026 l 532 1226 "},"Í":{"x_min":98.65625,"x_max":363.9375,"ha":367,"o":"m 233 983 l 133 983 l 133 0 l 233 0 l 233 983 m 363 1226 l 237 1226 l 98 1026 l 180 1026 l 363 1226 "},"´":{"x_min":82,"x_max":347,"ha":333,"o":"m 347 983 l 220 983 l 82 783 l 163 783 l 347 983 "},"ì":{"x_min":-14.28125,"x_max":251,"ha":333,"o":"m 212 650 l 120 650 l 120 0 l 212 0 l 212 650 m 169 783 l 251 783 l 112 983 l -14 983 l 169 783 "},"±":{"x_min":108.328125,"x_max":816.671875,"ha":925,"o":"m 108 481 l 420 481 l 420 272 l 504 272 l 504 481 l 816 481 l 816 565 l 504 565 l 504 781 l 420 781 l 420 565 l 108 565 l 108 481 m 108 66 l 816 66 l 816 150 l 108 150 l 108 66 "},"Ú":{"x_min":116.671875,"x_max":836.109375,"ha":953,"o":"m 836 983 l 736 983 l 736 377 b 476 66 736 94 551 66 b 216 377 401 66 216 94 l 216 983 l 116 983 l 116 366 b 476 -25 116 202 181 -25 b 836 366 770 -25 836 202 l 836 983 m 656 1226 l 530 1226 l 391 1026 l 473 1026 l 656 1226 "},"|":{"x_min":112.5,"x_max":195.828125,"ha":308,"o":"m 112 1041 l 112 -347 l 195 -347 l 195 1041 l 112 1041 "},"§":{"x_min":85.890625,"x_max":647,"ha":772,"o":"m 628 869 b 390 1000 601 941 513 1000 b 147 780 260 1000 147 923 b 253 613 147 680 216 638 b 109 427 172 577 109 519 b 234 247 109 340 162 281 l 424 154 b 522 31 483 125 522 88 b 360 -109 522 -76 434 -109 b 177 11 284 -109 208 -75 l 85 -33 b 360 -193 130 -141 237 -193 b 622 33 495 -193 622 -122 b 526 206 622 112 595 158 b 647 388 598 245 647 304 b 512 581 647 484 590 541 l 359 659 b 247 791 297 691 247 723 b 397 916 247 822 269 916 b 547 827 483 916 528 863 l 628 869 m 335 561 l 415 525 b 547 375 478 495 547 455 b 445 251 547 319 494 270 l 353 295 b 209 434 295 323 209 355 b 312 551 209 493 259 529 l 335 561 "},"Ý":{"x_min":-19.4375,"x_max":816.671875,"ha":797,"o":"m 448 423 l 816 983 l 691 983 l 398 519 l 105 983 l -19 983 l 348 423 l 348 0 l 448 0 l 448 423 m 578 1226 l 452 1226 l 313 1026 l 395 1026 l 578 1226 "},"b":{"x_min":100,"x_max":793.0625,"ha":849,"o":"m 100 0 l 191 0 l 191 108 l 194 108 b 447 -16 254 20 361 -16 b 793 325 650 -16 793 129 b 447 666 793 520 650 666 b 194 541 361 666 254 629 l 191 541 l 191 1050 l 100 1050 l 100 0 m 693 325 b 447 66 693 179 598 66 b 187 325 297 66 187 179 b 447 583 187 470 297 583 b 693 325 598 583 693 470 "},"q":{"x_min":55.5625,"x_max":748.609375,"ha":849,"o":"m 748 650 l 656 650 l 656 541 l 654 541 b 401 666 594 629 487 666 b 55 325 198 666 55 520 b 401 -16 55 129 198 -16 b 654 108 487 -16 594 20 l 656 108 l 656 -400 l 748 -400 l 748 650 m 155 325 b 401 583 155 470 250 583 b 661 325 551 583 661 470 b 401 66 661 179 551 66 b 155 325 250 66 155 179 "},"Ö":{"x_min":66.671875,"x_max":1091.671875,"ha":1158,"o":"m 1091 491 b 579 1008 1091 790 872 1008 b 66 491 286 1008 66 790 b 579 -25 66 193 286 -25 b 1091 491 872 -25 1091 193 m 983 491 b 579 66 983 265 831 66 b 175 491 326 66 175 265 b 579 916 175 718 326 916 b 983 491 831 916 983 718 m 375 1141 b 445 1070 375 1105 404 1070 b 516 1141 487 1070 516 1105 b 445 1212 516 1177 487 1212 b 375 1141 404 1212 375 1177 m 641 1141 b 712 1070 641 1105 670 1070 b 783 1141 754 1070 783 1105 b 712 1212 783 1177 754 1212 b 641 1141 670 1212 641 1177 "},"ﬂ":{"x_min":19.4375,"x_max":625,"ha":746,"o":"m 402 650 l 248 650 l 248 816 b 366 983 248 911 265 983 b 437 973 390 983 415 979 l 454 1056 b 375 1066 427 1062 401 1066 b 156 827 243 1066 156 1000 l 156 650 l 19 650 l 19 566 l 156 566 l 156 0 l 248 0 l 248 566 l 402 566 l 402 650 m 625 1050 l 533 1050 l 533 0 l 625 0 l 625 1050 "},"z":{"x_min":32.4375,"x_max":560.21875,"ha":592,"o":"m 546 650 l 51 650 l 51 566 l 413 566 l 32 66 l 32 0 l 560 0 l 560 83 l 165 83 l 546 583 l 546 650 "},"™":{"x_min":100,"x_max":1288.890625,"ha":1389,"o":"m 556 982 l 100 982 l 100 907 l 288 907 l 288 410 l 372 410 l 372 907 l 556 907 l 556 982 m 1288 982 l 1163 982 l 984 544 l 805 982 l 676 982 l 676 410 l 759 410 l 759 891 l 762 891 l 955 410 l 1009 410 l 1202 891 l 1205 891 l 1205 410 l 1288 410 l 1288 982 "},"ã":{"x_min":67,"x_max":620.03125,"ha":721,"o":"m 471 398 b 67 173 315 398 67 384 b 290 -16 67 47 175 -16 b 520 105 394 -16 467 19 l 522 105 b 531 0 522 70 525 31 l 620 0 b 608 145 614 34 608 95 l 608 436 b 371 666 608 594 499 666 b 96 572 249 666 155 633 l 151 506 b 350 583 207 556 274 583 b 517 415 463 583 517 527 l 517 398 l 471 398 m 517 323 l 517 276 b 319 66 517 161 453 66 b 167 186 246 66 167 100 b 469 323 167 316 376 323 l 517 323 m 196 800 b 264 869 204 834 222 869 b 357 837 293 869 325 854 b 458 805 390 822 425 805 b 586 950 542 805 574 877 l 526 950 b 458 880 518 915 500 880 b 365 912 431 880 399 897 b 264 944 332 929 297 944 b 136 800 180 944 148 872 l 196 800 "},"æ":{"x_min":67,"x_max":1116.921875,"ha":1183,"o":"m 1116 300 l 1116 341 b 822 666 1116 525 1014 665 b 590 541 729 666 632 618 b 375 666 560 612 475 666 b 117 572 269 666 179 630 l 173 505 b 371 583 228 556 294 583 b 537 415 419 583 535 552 l 537 375 l 383 375 b 67 173 237 375 67 347 b 290 -16 67 47 175 -16 b 579 134 426 -16 514 25 b 822 -16 626 30 725 -16 b 1094 115 923 -16 1023 25 l 1022 172 b 819 66 982 116 930 66 b 629 287 700 66 629 169 l 629 300 l 1116 300 m 537 300 l 537 287 b 319 66 537 158 451 66 b 167 186 246 66 167 100 b 347 300 167 273 269 300 l 537 300 m 629 375 b 825 583 629 494 715 583 b 1025 375 947 583 1025 495 l 629 375 "},"®":{"x_min":34.71875,"x_max":1076.390625,"ha":1111,"o":"m 362 188 l 445 188 l 445 445 l 552 445 l 716 188 l 806 188 l 634 452 b 793 615 723 462 793 508 b 581 787 793 734 725 787 l 362 787 l 362 188 m 445 712 l 575 712 b 709 619 638 712 709 702 b 548 520 709 525 631 520 l 445 520 l 445 712 m 34 488 b 555 -25 34 197 272 -25 b 1076 494 838 -25 1076 197 b 555 1008 1076 786 838 1008 b 34 488 272 1008 34 786 m 118 488 b 555 933 118 743 312 933 b 993 494 798 933 993 743 b 555 50 993 241 798 50 b 118 488 312 50 118 241 "},"É":{"x_min":133.328125,"x_max":759.71875,"ha":824,"o":"m 233 465 l 709 465 l 709 556 l 233 556 l 233 891 l 743 891 l 743 983 l 133 983 l 133 0 l 759 0 l 759 91 l 233 91 l 233 465 m 592 1226 l 466 1226 l 327 1026 l 409 1026 l 592 1226 "},"~":{"x_min":124,"x_max":801.78125,"ha":925,"o":"m 743 510 b 605 409 718 473 669 409 b 457 474 554 409 503 449 b 312 515 389 512 371 515 b 124 385 222 515 165 444 l 182 330 b 319 431 207 367 255 431 b 468 366 371 431 422 391 b 612 326 536 328 554 326 b 801 455 703 326 760 396 l 743 510 "},"³":{"x_min":47.21875,"x_max":454.171875,"ha":501,"o":"m 180 670 l 220 670 b 370 563 344 670 370 606 b 255 468 370 516 309 468 b 119 554 177 468 141 498 l 47 512 b 250 393 83 429 155 393 b 454 562 361 393 454 454 b 322 706 454 634 406 693 l 322 709 b 436 847 386 729 436 781 b 251 1000 436 944 351 1000 b 68 906 173 1000 115 976 l 133 861 b 252 925 169 911 200 925 b 352 838 309 925 352 888 b 213 745 352 776 288 745 l 180 745 l 180 670 "},"¡":{"x_min":118.0625,"x_max":268.0625,"ha":386,"o":"m 143 -316 l 243 -316 l 243 400 l 143 400 l 143 -316 m 118 600 b 193 525 118 561 148 525 b 268 600 237 525 268 561 b 193 675 268 638 237 675 b 118 600 148 675 118 638 "},"[":{"x_min":90.28125,"x_max":315.28125,"ha":361,"o":"m 315 1016 l 90 1016 l 90 -216 l 315 -216 l 315 -141 l 181 -141 l 181 941 l 315 941 l 315 1016 "},"L":{"x_min":133.328125,"x_max":691.671875,"ha":694,"o":"m 233 983 l 133 983 l 133 0 l 691 0 l 691 91 l 233 91 l 233 983 "}," ":{"x_min":0,"x_max":0,"ha":386},"%":{"x_min":52.78125,"x_max":1104.171875,"ha":1157,"o":"m 541 756 b 297 1000 541 893 434 1000 b 52 756 159 1000 52 893 b 297 513 52 620 159 513 b 541 756 434 513 541 620 m 458 756 b 297 597 458 665 384 597 b 136 756 209 597 136 665 b 297 916 136 848 209 916 b 458 756 384 916 458 848 m 1104 226 b 859 469 1104 362 997 469 b 615 226 722 469 615 362 b 859 -16 615 90 722 -16 b 1104 226 997 -16 1104 90 m 1020 226 b 859 66 1020 134 947 66 b 698 226 772 66 698 134 b 859 386 698 318 772 386 b 1020 226 947 386 1020 318 m 926 988 l 855 1026 l 229 -5 l 301 -43 l 926 988 "},"P":{"x_min":133.328125,"x_max":743.0625,"ha":797,"o":"m 133 0 l 233 0 l 233 456 l 419 456 b 743 720 619 456 743 544 b 419 983 743 897 619 983 l 133 983 l 133 0 m 233 891 l 394 891 b 634 720 573 891 634 815 b 394 548 634 626 573 548 l 233 548 l 233 891 "},"À":{"x_min":0,"x_max":953,"ha":953,"o":"m 224 258 l 727 258 l 836 0 l 953 0 l 523 983 l 426 983 l 0 0 l 116 0 l 224 258 m 475 867 l 689 350 l 261 350 l 475 867 m 478 1026 l 560 1026 l 421 1226 l 295 1226 l 478 1026 "},"_":{"x_min":0,"x_max":694.453125,"ha":694,"o":"m 0 -173 l 694 -173 l 694 -104 l 0 -104 l 0 -173 "},"ñ":{"x_min":93.0625,"x_max":656.953125,"ha":772,"o":"m 93 650 b 100 506 95 602 100 541 l 100 0 l 191 0 l 191 333 b 388 583 191 570 369 583 b 565 359 525 583 565 504 l 565 0 l 656 0 l 656 412 b 412 666 656 573 577 666 b 194 545 326 666 234 616 l 191 545 b 187 650 191 580 191 615 l 93 650 m 220 800 b 288 869 229 834 247 869 b 381 837 318 869 350 854 b 483 805 415 822 450 805 b 611 950 566 805 598 877 l 551 950 b 483 880 543 915 525 880 b 390 912 455 880 423 897 b 288 944 356 929 322 944 b 161 800 205 944 173 872 l 220 800 "},"+":{"x_min":108.328125,"x_max":816.671875,"ha":925,"o":"m 504 775 l 420 775 l 420 462 l 108 462 l 108 379 l 420 379 l 420 66 l 504 66 l 504 379 l 816 379 l 816 462 l 504 462 l 504 775 "},"‚":{"x_min":78,"x_max":284,"ha":361,"o":"m 284 131 l 171 131 l 78 -194 l 171 -194 l 284 131 "},"½":{"x_min":53.984375,"x_max":1104.28125,"ha":1158,"o":"m 249 -44 l 875 984 l 804 1027 l 177 0 l 249 -44 m 291 991 l 216 991 l 53 867 l 94 814 l 208 908 l 208 401 l 291 401 l 291 991 m 1104 74 l 789 74 l 969 237 b 1098 445 1033 295 1098 355 b 905 598 1098 546 1008 598 b 709 458 806 598 727 548 l 787 445 b 909 523 801 488 848 523 b 1015 439 959 523 1015 485 b 934 306 1015 385 972 342 l 697 78 l 697 0 l 1104 0 l 1104 74 "},"Æ":{"x_min":0,"x_max":1234.71875,"ha":1311,"o":"m 809 891 l 1218 891 l 1218 983 l 640 983 l 0 0 l 118 0 l 295 275 l 709 275 l 709 0 l 1234 0 l 1234 91 l 809 91 l 809 465 l 1193 465 l 1193 556 l 809 556 l 809 891 m 354 366 l 694 891 l 709 891 l 709 366 l 354 366 "},"Ë":{"x_min":133.328125,"x_max":759.71875,"ha":824,"o":"m 233 465 l 709 465 l 709 556 l 233 556 l 233 891 l 743 891 l 743 983 l 133 983 l 133 0 l 759 0 l 759 91 l 233 91 l 233 465 m 208 1141 b 279 1070 208 1105 237 1070 b 350 1141 320 1070 350 1105 b 279 1212 350 1177 320 1212 b 208 1141 237 1212 208 1177 m 475 1141 b 545 1070 475 1105 504 1070 b 616 1141 587 1070 616 1105 b 545 1212 616 1177 587 1212 b 475 1141 504 1212 475 1177 "},"'":{"x_min":138.890625,"x_max":222.21875,"ha":361,"o":"m 138 656 l 222 656 l 222 983 l 138 983 l 138 656 "},"Š":{"x_min":68.71875,"x_max":702.0625,"ha":772,"o":"m 685 888 b 407 1008 607 977 518 1008 b 89 729 247 1008 89 919 b 593 245 89 369 593 523 b 382 66 593 130 481 66 b 159 186 279 66 200 113 l 68 120 b 378 -25 143 18 259 -25 b 702 259 534 -25 702 80 b 197 738 702 613 197 473 b 407 916 197 862 304 916 b 597 820 490 916 554 884 l 685 888 m 593 1226 l 501 1226 l 386 1076 l 271 1226 l 179 1226 l 330 1026 l 442 1026 l 593 1226 "},"ª":{"x_min":42.921875,"x_max":406.8125,"ha":468,"o":"m 188 590 b 326 648 254 590 301 612 l 327 648 l 331 598 l 406 598 b 399 686 404 622 399 655 l 399 876 b 224 1001 399 922 363 1001 b 59 944 165 1001 108 990 l 104 893 b 227 934 137 919 177 934 b 316 855 284 934 316 906 l 316 844 l 285 844 b 42 705 102 844 42 791 b 188 590 42 627 113 590 m 316 777 b 208 656 316 729 305 656 b 126 709 167 656 126 673 b 298 777 126 777 251 777 l 316 777 "},"Œ":{"x_min":87.5,"x_max":1247.21875,"ha":1311,"o":"m 822 891 l 1230 891 l 1230 983 l 623 983 b 87 493 359 983 87 823 b 626 0 87 280 231 0 l 1247 0 l 1247 91 l 822 91 l 822 465 l 1213 465 l 1213 556 l 822 556 l 822 891 m 722 91 l 623 91 b 195 488 262 91 195 372 b 643 891 195 752 387 891 l 722 891 l 722 91 "},"˛":{"x_min":41.671875,"x_max":291.671875,"ha":333,"o":"m 265 -195 b 194 -226 247 -215 219 -226 b 125 -159 156 -226 125 -198 b 231 8 125 -105 163 -59 l 165 8 b 41 -183 108 -37 41 -105 b 166 -301 41 -254 101 -301 b 291 -251 212 -301 259 -281 l 265 -195 "},"ð":{"x_min":66.671875,"x_max":757.015625,"ha":824,"o":"m 166 324 b 411 582 166 470 261 582 b 656 324 562 582 656 470 b 411 66 656 178 562 66 b 166 324 261 66 166 178 m 631 991 l 576 1039 l 434 966 b 300 1081 393 1005 347 1042 l 216 1030 b 348 920 256 1002 301 964 l 198 842 l 248 792 l 401 871 b 622 588 486 796 550 724 l 619 585 b 411 666 552 641 491 666 b 66 324 209 666 66 520 b 411 -17 66 128 209 -17 b 756 352 679 -17 755 185 b 488 916 759 571 658 746 l 631 991 "},"T":{"x_min":19.4375,"x_max":777.78125,"ha":797,"o":"m 448 891 l 777 891 l 777 983 l 19 983 l 19 891 l 348 891 l 348 0 l 448 0 l 448 891 "},"š":{"x_min":46.21875,"x_max":549,"ha":592,"o":"m 526 550 b 310 666 485 634 400 666 b 69 470 187 666 69 605 b 236 300 69 347 192 311 l 325 279 b 449 175 393 262 449 240 b 296 66 449 100 371 66 b 125 163 219 66 162 105 l 46 109 b 296 -16 107 18 197 -16 b 549 183 422 -16 549 41 b 390 361 549 275 480 340 l 297 383 b 169 486 212 402 169 425 b 304 583 169 555 240 583 b 444 495 371 583 417 548 l 526 550 m 503 983 l 411 983 l 296 833 l 180 983 l 89 983 l 240 783 l 351 783 l 503 983 "},"Þ":{"x_min":133.328125,"x_max":743.0625,"ha":797,"o":"m 133 0 l 233 0 l 233 240 l 455 240 b 743 504 619 240 743 326 b 455 766 743 680 619 766 l 233 766 l 233 983 l 133 983 l 133 0 m 233 675 l 394 675 b 634 504 500 675 634 662 b 394 331 634 344 500 331 l 233 331 l 233 675 "},"j":{"x_min":-43.0625,"x_max":233.328125,"ha":333,"o":"m -43 -319 b 29 -333 -19 -329 4 -333 b 212 -129 223 -333 212 -166 l 212 650 l 120 650 l 120 -113 b 22 -250 120 -175 112 -250 b -26 -241 6 -250 -11 -245 l -30 -240 l -43 -319 m 233 900 b 166 966 233 938 200 966 b 100 900 133 966 100 938 b 166 833 100 861 133 833 b 233 900 200 833 233 861 "},"1":{"x_min":144.4375,"x_max":483.328125,"ha":772,"o":"m 483 983 l 394 983 l 144 777 l 206 702 l 383 858 l 383 0 l 483 0 l 483 983 "},"›":{"x_min":96,"x_max":356,"ha":438,"o":"m 255 333 l 96 88 l 161 43 l 356 333 l 161 624 l 96 578 l 255 333 "},"ı":{"x_min":120.828125,"x_max":212.5,"ha":333,"o":"m 212 650 l 120 650 l 120 0 l 212 0 l 212 650 "},"ä":{"x_min":67,"x_max":619.78125,"ha":721,"o":"m 471 398 b 67 173 315 398 67 384 b 290 -16 67 47 175 -16 b 519 105 394 -16 467 19 l 522 105 b 530 0 522 70 525 31 l 619 0 b 608 145 614 34 608 95 l 608 436 b 371 666 608 594 498 666 b 96 572 248 666 155 633 l 151 506 b 350 583 207 556 273 583 b 517 415 462 583 517 527 l 517 398 l 471 398 m 517 323 l 517 276 b 319 66 517 161 453 66 b 167 186 246 66 167 100 b 469 323 167 316 376 323 l 517 323 m 156 898 b 227 827 156 862 186 827 b 298 898 269 827 298 862 b 227 969 298 934 269 969 b 156 898 186 969 156 934 m 423 898 b 494 827 423 862 452 827 b 565 898 536 827 565 862 b 494 969 565 934 536 969 b 423 898 452 969 423 934 "},"<":{"x_min":108.328125,"x_max":816.671875,"ha":925,"o":"m 816 783 l 108 452 l 108 388 l 816 58 l 816 141 l 220 420 l 816 699 l 816 783 "},"£":{"x_min":116.671875,"x_max":768.0625,"ha":772,"o":"m 591 548 l 358 548 l 358 661 b 548 916 358 755 377 916 b 702 845 612 916 665 887 l 768 916 b 552 1000 712 975 633 1000 b 258 669 323 1000 258 845 l 258 548 l 125 548 l 125 465 l 258 465 l 258 83 l 116 83 l 116 0 l 709 0 l 709 83 l 358 83 l 358 465 l 591 465 l 591 548 "},"¹":{"x_min":75,"x_max":312.5,"ha":501,"o":"m 312 991 l 237 991 l 75 867 l 115 814 l 229 908 l 229 401 l 312 401 l 312 991 "},"t":{"x_min":19.4375,"x_max":441.671875,"ha":461,"o":"m 436 650 l 248 650 l 248 833 l 156 833 l 156 650 l 19 650 l 19 566 l 156 566 l 156 156 b 318 -16 156 13 248 -16 b 441 6 363 -16 408 -8 l 437 91 b 343 66 409 76 375 66 b 248 183 286 66 248 86 l 248 566 l 436 566 l 436 650 "},"¬":{"x_min":108.328125,"x_max":816.671875,"ha":925,"o":"m 816 566 l 108 566 l 108 483 l 733 483 l 733 180 l 816 180 l 816 566 "},"ù":{"x_min":100.171875,"x_max":664.0625,"ha":772,"o":"m 664 0 b 657 143 661 47 657 108 l 657 650 l 565 650 l 565 316 b 368 66 565 79 387 66 b 191 290 232 66 191 145 l 191 650 l 100 650 l 100 237 b 344 -16 100 76 179 -16 b 562 104 430 -16 522 33 l 565 104 b 569 0 565 69 565 34 l 664 0 m 389 783 l 471 783 l 332 983 l 205 983 l 389 783 "},"W":{"x_min":0,"x_max":1311,"ha":1311,"o":"m 111 983 l 0 983 l 290 0 l 406 0 l 654 841 l 656 841 l 904 0 l 1020 0 l 1311 983 l 1199 983 l 966 141 l 963 141 l 716 983 l 597 983 l 349 141 l 347 141 l 111 983 "},"ï":{"x_min":-37.5,"x_max":370.828125,"ha":333,"o":"m 212 650 l 120 650 l 120 0 l 212 0 l 212 650 m -37 898 b 33 827 -37 862 -8 827 b 104 898 75 827 104 862 b 33 969 104 934 75 969 b -37 898 -8 969 -37 934 m 229 898 b 300 827 229 862 258 827 b 370 898 341 827 370 862 b 300 969 370 934 341 969 b 229 898 258 969 229 934 "},">":{"x_min":107.71875,"x_max":816.046875,"ha":925,"o":"m 107 699 l 703 420 l 107 141 l 107 58 l 816 388 l 816 452 l 107 783 l 107 699 "},"v":{"x_min":19,"x_max":650,"ha":669,"o":"m 650 650 l 545 650 l 338 102 l 335 102 l 128 650 l 19 650 l 283 0 l 385 0 l 650 650 "},"û":{"x_min":99.828125,"x_max":663.71875,"ha":772,"o":"m 663 0 b 656 142 660 46 656 108 l 656 649 l 565 649 l 565 316 b 367 66 565 78 387 66 b 191 289 231 66 191 145 l 191 649 l 99 649 l 99 237 b 344 -17 99 76 179 -17 b 562 103 430 -17 522 33 l 565 103 b 569 0 565 69 565 34 l 663 0 m 441 983 l 330 983 l 179 783 l 270 783 l 385 933 l 501 783 l 592 783 l 441 983 "},"Ò":{"x_min":66.78125,"x_max":1091.78125,"ha":1158,"o":"m 1091 491 b 579 1008 1091 790 872 1008 b 66 491 286 1008 66 790 b 579 -25 66 193 286 -25 b 1091 491 872 -25 1091 193 m 983 491 b 579 66 983 265 832 66 b 175 491 326 66 175 265 b 579 916 175 718 326 916 b 983 491 832 916 983 718 m 582 1026 l 664 1026 l 525 1226 l 398 1226 l 582 1026 "},"&":{"x_min":66.34375,"x_max":955.234375,"ha":978,"o":"m 914 531 l 802 531 l 667 297 l 441 531 b 658 786 542 583 658 657 b 420 1007 658 929 551 1007 b 174 775 281 1007 174 922 b 289 545 174 685 231 607 b 66 254 171 489 66 399 b 374 -25 66 78 210 -25 b 674 143 508 -25 594 38 l 813 0 l 955 0 l 734 226 l 914 531 m 558 786 b 377 595 558 685 452 638 b 274 771 345 622 274 704 b 421 915 274 860 339 915 b 558 786 496 915 558 864 m 612 210 b 376 65 548 129 483 65 b 174 253 269 65 174 142 b 352 482 174 354 223 410 l 612 210 "},"˝":{"x_min":-106,"x_max":438,"ha":333,"o":"m 160 983 l 34 983 l -106 783 l -24 783 l 160 983 m 438 983 l 311 983 l 172 783 l 254 783 l 438 983 "},"Ð":{"x_min":18.0625,"x_max":962.5,"ha":1029,"o":"m 119 0 l 445 0 b 962 491 691 0 962 163 b 445 983 962 819 691 983 l 119 983 l 119 556 l 18 556 l 18 481 l 119 481 l 119 0 m 219 481 l 577 481 l 577 556 l 219 556 l 219 891 l 413 891 b 854 491 713 891 854 694 b 413 91 854 288 713 91 l 219 91 l 219 481 "},"I":{"x_min":133.328125,"x_max":233.328125,"ha":367,"o":"m 233 983 l 133 983 l 133 0 l 233 0 l 233 983 "},"G":{"x_min":66.265625,"x_max":951,"ha":1081,"o":"m 934 876 b 578 1008 846 963 734 1008 b 66 491 285 1008 66 790 b 578 -25 66 193 285 -25 b 951 75 698 -25 841 9 l 951 556 l 616 556 l 616 465 l 851 465 l 851 136 b 578 66 777 94 680 66 b 174 491 326 66 174 265 b 578 916 174 718 326 916 b 859 802 699 916 792 873 l 934 876 "},"`":{"x_min":-14.28125,"x_max":251,"ha":333,"o":"m 169 783 l 251 783 l 112 983 l -14 983 l 169 783 "},"·":{"x_min":118.0625,"x_max":268.0625,"ha":386,"o":"m 268 436 b 193 511 268 475 237 511 b 118 436 148 511 118 475 b 193 361 118 397 148 361 b 268 436 237 361 268 397 "},"r":{"x_min":104.171875,"x_max":473.609375,"ha":461,"o":"m 109 0 l 201 0 l 201 366 b 402 575 201 454 263 575 b 455 568 427 575 444 572 l 473 658 b 405 666 454 663 431 666 b 197 529 291 666 223 598 l 194 529 l 194 650 l 104 650 b 109 447 106 555 109 505 l 109 0 "},"¿":{"x_min":61.109375,"x_max":604.171875,"ha":669,"o":"m 286 329 b 61 -90 286 126 61 145 b 325 -333 61 -247 176 -333 b 604 -102 468 -333 583 -248 l 500 -90 b 323 -241 483 -180 416 -241 b 161 -81 227 -241 161 -176 b 386 284 161 81 383 131 l 386 400 l 286 400 l 286 329 m 252 600 b 327 525 252 561 283 525 b 402 600 372 525 402 561 b 327 675 402 638 372 675 b 252 600 283 675 252 638 "},"ý":{"x_min":22,"x_max":651,"ha":669,"o":"m 137 650 l 22 650 l 288 -8 l 241 -133 b 116 -250 213 -206 180 -250 b 47 -234 91 -250 67 -245 l 37 -323 b 121 -333 65 -331 94 -333 b 326 -169 234 -333 287 -269 l 651 650 l 539 650 l 341 112 l 137 650 m 515 983 l 388 983 l 249 783 l 331 783 l 515 983 "},"x":{"x_min":0,"x_max":669,"ha":669,"o":"m 0 0 l 116 0 l 326 284 l 544 0 l 669 0 l 396 347 l 623 650 l 509 650 l 337 406 l 156 650 l 31 650 l 267 347 l 0 0 "},"è":{"x_min":66.828125,"x_max":706,"ha":772,"o":"m 706 300 l 706 341 b 394 666 706 519 592 665 b 66 325 209 666 66 520 b 403 -16 66 129 209 -16 b 682 120 510 -16 605 23 l 611 179 b 403 66 575 120 500 66 b 164 300 273 66 175 169 l 706 300 m 166 375 b 394 583 166 481 275 583 b 605 375 526 583 605 498 l 166 375 m 389 783 l 471 783 l 332 983 l 205 983 l 389 783 "},"º":{"x_min":43.0625,"x_max":491.671875,"ha":535,"o":"m 491 793 b 266 1000 491 912 398 1000 b 43 793 136 1000 43 912 b 266 588 43 676 136 588 b 491 793 398 588 491 676 m 408 793 b 266 655 408 718 350 655 b 126 793 184 655 126 718 b 266 933 126 869 184 933 b 408 793 350 933 408 869 "},"Ø":{"x_min":66.90625,"x_max":1091.09375,"ha":1158,"o":"m 1063 961 l 1011 1009 l 906 896 b 578 1009 817 968 705 1009 b 66 492 286 1009 66 790 b 200 136 66 350 115 226 l 94 22 l 146 -25 l 251 87 b 579 -25 337 16 451 -25 b 1091 492 871 -25 1091 193 b 957 847 1091 633 1042 757 l 1063 961 m 888 772 b 982 492 949 696 982 596 b 579 66 982 265 831 66 b 318 159 472 66 384 101 l 888 772 m 269 211 b 175 492 208 286 175 386 b 579 917 175 718 326 917 b 839 824 685 917 773 882 l 269 211 "},"μ":{"x_min":100,"x_max":663.890625,"ha":772,"o":"m 100 -318 l 191 -318 l 191 22 b 344 -18 229 -4 280 -18 b 562 103 430 -18 522 38 l 565 103 l 565 -1 l 663 -1 b 656 141 661 45 656 94 l 656 648 l 565 648 l 565 315 b 368 65 565 155 479 65 b 191 288 234 65 191 128 l 191 648 l 100 648 l 100 -318 "},"÷":{"x_min":108.328125,"x_max":816.671875,"ha":925,"o":"m 816 462 l 108 462 l 108 379 l 816 379 l 816 462 m 537 645 b 462 720 537 684 506 720 b 387 645 418 720 387 684 b 462 570 387 606 418 570 b 537 645 506 570 537 606 m 537 195 b 462 270 537 234 506 270 b 387 195 418 270 387 234 b 462 120 387 156 418 120 b 537 195 506 120 537 156 "},"h":{"x_min":100,"x_max":656.953125,"ha":772,"o":"m 100 0 l 191 0 l 191 333 b 388 583 191 570 369 583 b 565 359 525 583 565 504 l 565 0 l 656 0 l 656 412 b 412 666 656 573 577 666 b 194 545 326 666 234 616 l 191 545 l 191 1050 l 100 1050 l 100 0 "},".":{"x_min":118.0625,"x_max":268.0625,"ha":386,"o":"m 268 66 b 193 141 268 105 237 141 b 118 66 148 141 118 105 b 193 -8 118 27 148 -8 b 268 66 237 -8 268 27 "},";":{"x_min":90.28125,"x_max":295.828125,"ha":386,"o":"m 295 131 l 183 131 l 90 -194 l 183 -194 l 295 131 m 280 581 b 205 656 280 620 250 656 b 130 581 161 656 130 620 b 205 506 130 543 161 506 b 280 581 250 506 280 543 "},"f":{"x_min":19.4375,"x_max":454.171875,"ha":411,"o":"m 402 650 l 248 650 l 248 816 b 366 983 248 911 265 983 b 437 973 390 983 415 979 l 454 1056 b 375 1066 427 1062 401 1066 b 156 827 243 1066 156 1000 l 156 650 l 19 650 l 19 566 l 156 566 l 156 0 l 248 0 l 248 566 l 402 566 l 402 650 "},"“":{"x_min":132,"x_max":590,"ha":721,"o":"m 132 656 l 244 656 l 338 983 l 244 983 l 132 656 m 384 656 l 496 656 l 590 983 l 496 983 l 384 656 "},"A":{"x_min":0,"x_max":953,"ha":953,"o":"m 225 258 l 727 258 l 836 0 l 953 0 l 525 983 l 427 983 l 0 0 l 116 0 l 225 258 m 476 867 l 689 350 l 262 350 l 476 867 "},"6":{"x_min":66.671875,"x_max":705.5625,"ha":772,"o":"m 534 983 l 416 983 l 151 551 b 66 287 102 472 66 396 b 386 -16 66 107 201 -16 b 705 287 570 -16 705 107 b 405 591 705 464 576 591 b 269 558 361 591 301 580 l 266 561 l 534 983 m 166 287 b 386 500 166 412 256 500 b 605 287 515 500 605 412 b 386 75 605 162 515 75 b 166 287 256 75 166 162 "},"‘":{"x_min":78,"x_max":284,"ha":361,"o":"m 78 656 l 190 656 l 284 983 l 190 983 l 78 656 "},"O":{"x_min":66.671875,"x_max":1091.671875,"ha":1158,"o":"m 1091 491 b 579 1008 1091 790 872 1008 b 66 491 286 1008 66 790 b 579 -25 66 193 286 -25 b 1091 491 872 -25 1091 193 m 983 491 b 579 66 983 265 831 66 b 175 491 326 66 175 265 b 579 916 175 718 326 916 b 983 491 831 916 983 718 "},"n":{"x_min":93.0625,"x_max":656.953125,"ha":772,"o":"m 93 650 b 100 506 95 602 100 541 l 100 0 l 191 0 l 191 333 b 388 583 191 570 369 583 b 565 359 525 583 565 504 l 565 0 l 656 0 l 656 412 b 412 666 656 573 577 666 b 194 545 326 666 234 616 l 191 545 b 187 650 191 580 191 615 l 93 650 "},"3":{"x_min":52.4375,"x_max":676.0625,"ha":772,"o":"m 283 469 l 326 469 b 576 269 455 469 576 418 b 370 75 576 154 483 75 b 158 213 252 75 191 120 l 52 181 b 362 -16 106 43 217 -16 b 676 266 533 -16 676 84 b 487 516 676 390 599 493 l 483 519 b 649 744 573 548 649 637 b 364 1000 649 908 519 1000 b 92 844 245 1000 151 950 l 180 800 b 367 908 220 869 285 908 b 549 741 481 908 549 847 b 334 561 549 611 451 561 l 283 561 l 283 469 "},"9":{"x_min":66.671875,"x_max":705.5625,"ha":772,"o":"m 237 0 l 355 0 l 620 432 b 705 696 669 511 705 587 b 386 1000 705 876 570 1000 b 66 696 201 1000 66 876 b 366 392 66 519 195 392 b 502 425 411 392 470 403 l 505 422 l 237 0 m 605 696 b 386 483 605 571 515 483 b 166 696 256 483 166 571 b 386 908 166 821 256 908 b 605 696 515 908 605 821 "},"l":{"x_min":120.828125,"x_max":212.5,"ha":333,"o":"m 212 1050 l 120 1050 l 120 0 l 212 0 l 212 1050 "},"¤":{"x_min":42.953125,"x_max":730.046875,"ha":772,"o":"m 730 776 l 668 837 l 594 763 b 386 837 533 810 460 837 b 178 763 312 837 239 810 l 104 837 l 43 776 l 116 702 b 43 491 68 641 41 569 b 116 280 41 413 68 341 l 43 206 l 104 146 l 178 219 b 386 146 239 172 312 146 b 594 219 460 146 533 172 l 668 146 l 730 206 l 656 280 b 730 491 704 341 731 413 b 656 702 731 569 704 641 l 730 776 m 134 491 b 387 753 134 635 247 753 b 638 491 526 753 638 635 b 387 229 638 347 526 229 b 134 491 247 229 134 347 "},"4":{"x_min":52.671875,"x_max":719.328125,"ha":772,"o":"m 577 983 l 449 983 l 52 347 l 52 233 l 477 233 l 477 0 l 577 0 l 577 233 l 719 233 l 719 325 l 577 325 l 577 983 m 477 325 l 136 325 l 474 883 l 477 883 l 477 325 "},"p":{"x_min":100,"x_max":793.0625,"ha":849,"o":"m 100 -400 l 191 -400 l 191 108 l 194 108 b 447 -16 254 20 361 -16 b 793 325 650 -16 793 129 b 447 666 793 520 650 666 b 194 541 361 666 254 629 l 191 541 l 191 650 l 100 650 l 100 -400 m 693 325 b 447 66 693 179 598 66 b 187 325 297 66 187 179 b 447 583 187 470 297 583 b 693 325 598 583 693 470 "},"‡":{"x_min":69.4375,"x_max":702.78125,"ha":772,"o":"m 431 983 l 340 983 l 340 716 l 69 716 l 69 633 l 340 633 l 340 175 l 69 175 l 69 91 l 340 91 l 340 -175 l 431 -175 l 431 91 l 702 91 l 702 175 l 431 175 l 431 633 l 702 633 l 702 716 l 431 716 l 431 983 "},"à":{"x_min":67,"x_max":619.609375,"ha":721,"o":"m 471 398 b 67 173 315 398 67 384 b 290 -16 67 47 175 -16 b 519 105 394 -16 466 19 l 522 105 b 530 0 522 70 525 31 l 619 0 b 608 145 614 34 608 95 l 608 436 b 371 666 608 594 498 666 b 96 572 248 666 155 633 l 151 506 b 350 583 207 556 273 583 b 516 415 462 583 516 527 l 516 398 l 471 398 m 516 323 l 516 276 b 319 66 516 161 452 66 b 166 186 246 66 166 100 b 469 323 166 316 376 323 l 516 323 m 364 783 l 446 783 l 307 983 l 180 983 l 364 783 "},"Ü":{"x_min":116.671875,"x_max":836.109375,"ha":953,"o":"m 836 983 l 736 983 l 736 377 b 476 66 736 94 551 66 b 216 377 401 66 216 94 l 216 983 l 116 983 l 116 366 b 476 -25 116 202 181 -25 b 836 366 770 -25 836 202 l 836 983 m 272 1141 b 343 1070 272 1105 301 1070 b 413 1141 384 1070 413 1105 b 343 1212 413 1177 384 1212 b 272 1141 301 1212 272 1177 m 538 1141 b 609 1070 538 1105 568 1070 b 680 1141 651 1070 680 1105 b 609 1212 680 1177 651 1212 b 538 1141 568 1212 538 1177 "},"ó":{"x_min":66.671875,"x_max":756.953125,"ha":824,"o":"m 756 325 b 411 666 756 520 613 666 b 66 325 209 666 66 520 b 411 -16 66 129 209 -16 b 756 325 613 -16 756 129 m 656 325 b 411 66 656 179 562 66 b 166 325 261 66 166 179 b 411 583 166 470 261 583 b 656 325 562 583 656 470 m 592 983 l 466 983 l 327 783 l 409 783 l 592 983 "}}}
